<svg xmlns="http://www.w3.org/2000/svg" width="322.55" height="35" viewBox="0 0 322.55 35"><rect class="svg__rect" x="0" y="0" width="223.04" height="35" fill="#31C4F3"/><rect class="svg__rect" x="221.04" y="0" width="101.51000000000002" height="35" fill="#389AD5"/><path class="svg__text" d="M15.60 22L13.63 13.47L15.10 13.47L16.43 19.88L18.06 13.47L19.30 13.47L20.91 19.89L22.22 13.47L23.69 13.47L21.72 22L20.31 22L18.68 15.77L17.02 22L15.60 22ZM27.49 18.00L27.49 18.00L27.49 17.52Q27.49 16.28 27.94 15.32Q28.38 14.37 29.18 13.86Q29.99 13.35 31.03 13.35Q32.08 13.35 32.88 13.85Q33.69 14.35 34.13 15.29Q34.57 16.23 34.57 17.48L34.57 17.48L34.57 17.96Q34.57 19.21 34.14 20.16Q33.71 21.10 32.90 21.61Q32.09 22.12 31.05 22.12L31.05 22.12Q30.01 22.12 29.20 21.61Q28.39 21.10 27.94 20.17Q27.50 19.23 27.49 18.00ZM28.98 17.46L28.98 17.96Q28.98 19.36 29.52 20.13Q30.07 20.90 31.05 20.90L31.05 20.90Q32.03 20.90 32.56 20.15Q33.09 19.40 33.09 17.96L33.09 17.96L33.09 17.51Q33.09 16.09 32.55 15.34Q32.02 14.58 31.03 14.58L31.03 14.58Q30.07 14.58 29.53 15.33Q28.99 16.09 28.98 17.46L28.98 17.46ZM40.52 22L39.04 22L39.04 13.47L42.04 13.47Q43.51 13.47 44.32 14.13Q45.12 14.79 45.12 16.05L45.12 16.05Q45.12 16.90 44.71 17.48Q44.29 18.06 43.56 18.37L43.56 18.37L45.47 21.92L45.47 22L43.88 22L42.17 18.71L40.52 18.71L40.52 22ZM40.52 14.66L40.52 17.52L42.04 17.52Q42.79 17.52 43.22 17.15Q43.64 16.77 43.64 16.11L43.64 16.11Q43.64 15.43 43.25 15.05Q42.86 14.68 42.08 14.66L42.08 14.66L40.52 14.66ZM51.00 22L49.51 22L49.51 13.47L51.00 13.47L51.00 17.47L51.82 16.46L54.31 13.47L56.11 13.47L52.94 17.25L56.29 22L54.53 22L51.96 18.31L51.00 19.34L51.00 22ZM59.63 19.42L59.63 19.42L61.12 19.42Q61.12 20.15 61.60 20.55Q62.08 20.95 62.97 20.95L62.97 20.95Q63.75 20.95 64.14 20.63Q64.53 20.32 64.53 19.80L64.53 19.80Q64.53 19.24 64.13 18.94Q63.73 18.63 62.70 18.32Q61.67 18.01 61.06 17.63L61.06 17.63Q59.90 16.90 59.90 15.72L59.90 15.72Q59.90 14.69 60.74 14.02Q61.58 13.35 62.92 13.35L62.92 13.35Q63.81 13.35 64.51 13.68Q65.21 14.01 65.60 14.61Q66.00 15.22 66.00 15.96L66.00 15.96L64.53 15.96Q64.53 15.29 64.11 14.91Q63.69 14.54 62.91 14.54L62.91 14.54Q62.18 14.54 61.78 14.85Q61.38 15.16 61.38 15.71L61.38 15.71Q61.38 16.18 61.81 16.50Q62.25 16.81 63.24 17.10Q64.24 17.40 64.84 17.78Q65.45 18.16 65.73 18.65Q66.01 19.13 66.01 19.79L66.01 19.79Q66.01 20.86 65.19 21.49Q64.37 22.12 62.97 22.12L62.97 22.12Q62.05 22.12 61.27 21.77Q60.49 21.43 60.06 20.83Q59.63 20.22 59.63 19.42ZM81.85 22L76.27 22L76.27 13.47L81.81 13.47L81.81 14.66L77.76 14.66L77.76 17.02L81.26 17.02L81.26 18.19L77.76 18.19L77.76 20.82L81.85 20.82L81.85 22ZM87.14 22L85.42 22L88.06 17.70L85.48 13.47L87.19 13.47L88.98 16.55L90.78 13.47L92.49 13.47L89.91 17.70L92.55 22L90.82 22L88.98 18.87L87.14 22ZM96.36 18.19L96.36 18.19L96.36 17.39Q96.36 16.19 96.79 15.27Q97.22 14.35 98.02 13.85Q98.81 13.35 99.86 13.35L99.86 13.35Q101.28 13.35 102.14 14.12Q103.00 14.89 103.14 16.29L103.14 16.29L101.66 16.29Q101.56 15.37 101.13 14.96Q100.70 14.55 99.86 14.55L99.86 14.55Q98.90 14.55 98.38 15.26Q97.86 15.96 97.85 17.33L97.85 17.33L97.85 18.09Q97.85 19.47 98.34 20.20Q98.84 20.92 99.79 20.92L99.79 20.92Q100.67 20.92 101.11 20.53Q101.55 20.14 101.66 19.22L101.66 19.22L103.14 19.22Q103.01 20.59 102.13 21.35Q101.25 22.12 99.79 22.12L99.79 22.12Q98.77 22.12 98.00 21.63Q97.22 21.15 96.80 20.26Q96.38 19.37 96.36 18.19ZM112.81 22L107.45 22L107.45 13.47L108.93 13.47L108.93 20.82L112.81 20.82L112.81 22ZM116.80 19.16L116.80 19.16L116.80 13.47L118.27 13.47L118.27 19.18Q118.27 20.03 118.71 20.48Q119.14 20.93 119.98 20.93L119.98 20.93Q121.70 20.93 121.70 19.13L121.70 19.13L121.70 13.47L123.17 13.47L123.17 19.17Q123.17 20.53 122.30 21.32Q121.43 22.12 119.98 22.12L119.98 22.12Q118.52 22.12 117.66 21.33Q116.80 20.55 116.80 19.16ZM127.31 19.42L127.31 19.42L128.79 19.42Q128.79 20.15 129.27 20.55Q129.75 20.95 130.65 20.95L130.65 20.95Q131.42 20.95 131.81 20.63Q132.20 20.32 132.20 19.80L132.20 19.80Q132.20 19.24 131.81 18.94Q131.41 18.63 130.38 18.32Q129.35 18.01 128.74 17.63L128.74 17.63Q127.57 16.90 127.57 15.72L127.57 15.72Q127.57 14.69 128.41 14.02Q129.25 13.35 130.60 13.35L130.60 13.35Q131.49 13.35 132.18 13.68Q132.88 14.01 133.28 14.61Q133.68 15.22 133.68 15.96L133.68 15.96L132.20 15.96Q132.20 15.29 131.78 14.91Q131.36 14.54 130.58 14.54L130.58 14.54Q129.86 14.54 129.46 14.85Q129.06 15.16 129.06 15.71L129.06 15.71Q129.06 16.18 129.49 16.50Q129.92 16.81 130.92 17.10Q131.91 17.40 132.52 17.78Q133.12 18.16 133.40 18.65Q133.68 19.13 133.68 19.79L133.68 19.79Q133.68 20.86 132.87 21.49Q132.05 22.12 130.65 22.12L130.65 22.12Q129.72 22.12 128.95 21.77Q128.17 21.43 127.74 20.83Q127.31 20.22 127.31 19.42ZM139.54 22L138.06 22L138.06 13.47L139.54 13.47L139.54 22ZM146.64 22L143.59 13.47L145.21 13.47L147.35 20.14L149.52 13.47L151.15 13.47L148.08 22L146.64 22ZM160.68 22L155.10 22L155.10 13.47L160.64 13.47L160.64 14.66L156.58 14.66L156.58 17.02L160.09 17.02L160.09 18.19L156.58 18.19L156.58 20.82L160.68 20.82L160.68 22ZM170.23 22L164.87 22L164.87 13.47L166.36 13.47L166.36 20.82L170.23 20.82L170.23 22ZM176.39 18.86L173.53 13.47L175.17 13.47L177.14 17.51L179.10 13.47L180.74 13.47L177.88 18.86L177.88 22L176.39 22L176.39 18.86ZM190.36 18.00L190.36 18.00L190.36 17.52Q190.36 16.28 190.80 15.32Q191.25 14.37 192.05 13.86Q192.86 13.35 193.90 13.35Q194.94 13.35 195.75 13.85Q196.56 14.35 196.99 15.29Q197.43 16.23 197.44 17.48L197.44 17.48L197.44 17.96Q197.44 19.21 197.01 20.16Q196.57 21.10 195.77 21.61Q194.96 22.12 193.91 22.12L193.91 22.12Q192.88 22.12 192.06 21.61Q191.25 21.10 190.81 20.17Q190.37 19.23 190.36 18.00ZM191.84 17.46L191.84 17.96Q191.84 19.36 192.39 20.13Q192.94 20.90 193.91 20.90L193.91 20.90Q194.90 20.90 195.43 20.15Q195.96 19.40 195.96 17.96L195.96 17.96L195.96 17.51Q195.96 16.09 195.42 15.34Q194.89 14.58 193.90 14.58L193.90 14.58Q192.94 14.58 192.40 15.33Q191.86 16.09 191.84 17.46L191.84 17.46ZM203.39 22L201.90 22L201.90 13.47L203.39 13.47L207.20 19.54L207.20 13.47L208.67 13.47L208.67 22L207.19 22L203.39 15.95L203.39 22Z" fill="#FFFFFF"/><path class="svg__text" d="M237.61 22L235.23 22L235.23 13.60L241.82 13.60L241.82 15.44L237.61 15.44L237.61 17.28L241.32 17.28L241.32 19.12L237.61 19.12L237.61 22ZM248.79 22L246.41 22L246.41 13.60L248.79 13.60L248.79 22ZM256.35 22L253.97 22L253.97 13.60L257.81 13.60Q258.95 13.60 259.79 13.98Q260.63 14.35 261.09 15.06Q261.54 15.76 261.54 16.71L261.54 16.71Q261.54 17.62 261.11 18.30Q260.69 18.98 259.90 19.36L259.90 19.36L261.71 22L259.16 22L257.64 19.77L256.35 19.77L256.35 22ZM256.35 15.47L256.35 17.93L257.66 17.93Q258.40 17.93 258.77 17.61Q259.14 17.29 259.14 16.71L259.14 16.71Q259.14 16.12 258.77 15.79Q258.40 15.47 257.66 15.47L257.66 15.47L256.35 15.47ZM273.07 22L266.33 22L266.33 13.60L272.92 13.60L272.92 15.44L268.68 15.44L268.68 16.85L272.42 16.85L272.42 18.63L268.68 18.63L268.68 20.17L273.07 20.17L273.07 22ZM280.26 22L277.88 22L277.88 13.60L284.47 13.60L284.47 15.44L280.26 15.44L280.26 17.28L283.97 17.28L283.97 19.12L280.26 19.12L280.26 22ZM288.64 17.80L288.64 17.80Q288.64 16.55 289.24 15.55Q289.84 14.56 290.91 14.00Q291.97 13.43 293.30 13.43L293.30 13.43Q294.63 13.43 295.69 14.00Q296.76 14.56 297.36 15.55Q297.97 16.55 297.97 17.80L297.97 17.80Q297.97 19.05 297.36 20.04Q296.76 21.04 295.70 21.60Q294.64 22.17 293.30 22.17L293.30 22.17Q291.97 22.17 290.91 21.60Q289.84 21.04 289.24 20.04Q288.64 19.05 288.64 17.80ZM291.03 17.80L291.03 17.80Q291.03 18.51 291.33 19.05Q291.64 19.60 292.15 19.90Q292.67 20.20 293.30 20.20L293.30 20.20Q293.94 20.20 294.45 19.90Q294.97 19.60 295.27 19.05Q295.57 18.51 295.57 17.80L295.57 17.80Q295.57 17.09 295.27 16.54Q294.97 16 294.45 15.70Q293.94 15.40 293.30 15.40L293.30 15.40Q292.66 15.40 292.15 15.70Q291.64 16 291.33 16.54Q291.03 17.09 291.03 17.80ZM304.55 22L301.84 22L304.90 17.75L301.97 13.60L304.64 13.60L306.33 16.02L307.98 13.60L310.55 13.60L307.62 17.66L310.74 22L308.01 22L306.27 19.40L304.55 22Z" fill="#FFFFFF" x="234.04"/></svg>